<?xml version="1.0" encoding="UTF-8" standalone="no"?>
<!-- Created with Inkscape (http://www.inkscape.org/) -->

<svg
   width="16"
   height="16"
   viewBox="0 0 16 16"
   version="1.1"
   id="svg1"
   inkscape:version="1.4.2 (ebf0e940d0, 2025-05-08)"
   sodipodi:docname="remove-subreddit-btn.svg"
   xmlns:inkscape="http://www.inkscape.org/namespaces/inkscape"
   xmlns:sodipodi="http://sodipodi.sourceforge.net/DTD/sodipodi-0.dtd"
   xmlns="http://www.w3.org/2000/svg"
   xmlns:svg="http://www.w3.org/2000/svg">
  <sodipodi:namedview
     id="namedview1"
     pagecolor="#505050"
     bordercolor="#eeeeee"
     borderopacity="1"
     inkscape:showpageshadow="0"
     inkscape:pageopacity="0"
     inkscape:pagecheckerboard="0"
     inkscape:deskcolor="#505050"
     inkscape:document-units="px"
     showgrid="true"
     inkscape:zoom="19.202369"
     inkscape:cx="8.2541901"
     inkscape:cy="11.79542"
     inkscape:window-width="1920"
     inkscape:window-height="1113"
     inkscape:window-x="0"
     inkscape:window-y="0"
     inkscape:window-maximized="1"
     inkscape:current-layer="layer1">
    <inkscape:grid
       id="grid1"
       units="px"
       originx="0"
       originy="0"
       spacingx="1"
       spacingy="1"
       empcolor="#e5e5e5"
       empopacity="0.30196078"
       color="#e5e5e5"
       opacity="0.14901961"
       empspacing="4"
       enabled="true"
       visible="true" />
  </sodipodi:namedview>
  <defs
     id="defs1" />
  <g
     inkscape:label="Layer 1"
     inkscape:groupmode="layer"
     id="layer1">
    <path
       id="path1"
       style="fill:#ffffff;stroke:none;stroke-width:2;stroke-linecap:round;stroke-linejoin:round"
       d="M 8 0 A 8 8 0 0 0 0 8 A 8 8 0 0 0 8 16 A 8 8 0 0 0 16 8 A 8 8 0 0 0 8 0 z M 5 3.5 A 1.5 1.5 0 0 1 6.0605469 3.9394531 L 8 5.8789062 L 9.9394531 3.9394531 A 1.5 1.5 0 0 1 12.060547 3.9394531 A 1.5 1.5 0 0 1 12.060547 6.0605469 L 10.121094 8 L 12.060547 9.9394531 A 1.5 1.5 0 0 1 12.060547 12.060547 A 1.5 1.5 0 0 1 9.9394531 12.060547 L 8 10.121094 L 6.0605469 12.060547 A 1.5 1.5 0 0 1 3.9394531 12.060547 A 1.5 1.5 0 0 1 3.9394531 9.9394531 L 5.8789062 8 L 3.9394531 6.0605469 A 1.5 1.5 0 0 1 3.9394531 3.9394531 A 1.5 1.5 0 0 1 5 3.5 z " />
  </g>
</svg>
